<?xml version="1.0" standalone="no"?>
<!DOCTYPE svg PUBLIC "-//W3C//DTD SVG 20010904//EN"
 "http://www.w3.org/TR/2001/REC-SVG-20010904/DTD/svg10.dtd">
<svg version="1.0" xmlns="http://www.w3.org/2000/svg"
 width="2940.000000pt" height="1504.000000pt" viewBox="0 0 2940.000000 1504.000000"
 preserveAspectRatio="xMidYMid meet">

<g transform="translate(0.000000,1504.000000) scale(0.100000,-0.100000)"
fill="#000000" stroke="none">
<path d="M11550 13525 c-161 -33 -267 -92 -391 -215 -82 -81 -102 -108 -142
-190 -60 -123 -76 -185 -87 -350 -9 -144 -31 -232 -80 -330 -67 -132 -179
-246 -310 -314 -104 -55 -190 -76 -340 -86 -165 -11 -227 -27 -350 -87 -81
-39 -109 -60 -191 -142 -82 -82 -103 -110 -142 -191 -90 -183 -82 81 -82
-2600 0 -2681 -8 -2417 82 -2600 39 -81 60 -109 142 -191 82 -82 110 -103 191
-142 175 -86 103 -81 1100 -87 l885 -5 70 -24 c250 -83 419 -253 494 -496 15
-46 25 -117 31 -205 11 -165 27 -227 87 -350 39 -81 60 -109 142 -191 82 -82
110 -103 191 -142 183 -90 -81 -82 2600 -82 2681 0 2417 -8 2600 82 81 39 109
60 191 142 82 82 103 110 142 191 60 123 76 185 87 350 9 144 31 232 80 330
67 132 179 246 310 314 104 55 190 76 340 86 165 11 227 27 350 87 81 39 109
60 191 142 82 82 103 110 142 191 90 183 82 -81 82 2600 0 2681 8 2417 -82
2600 -39 81 -60 109 -142 191 -82 82 -110 103 -191 142 -184 90 89 81 -2600
87 l-2385 5 -70 23 c-250 84 -419 254 -494 497 -15 46 -25 117 -31 205 -11
165 -27 227 -87 350 -39 81 -60 109 -142 191 -82 82 -110 103 -191 142 -177
87 -105 81 -1075 84 -687 1 -873 -1 -925 -12z"/>
</g>
</svg>
