<?xml version="1.0" standalone="no"?>
<!DOCTYPE svg PUBLIC "-//W3C//DTD SVG 20010904//EN"
 "http://www.w3.org/TR/2001/REC-SVG-20010904/DTD/svg10.dtd">
<svg version="1.0" xmlns="http://www.w3.org/2000/svg"
 width="2940.000000pt" height="1504.000000pt" viewBox="0 0 2940.000000 1504.000000"
 preserveAspectRatio="xMidYMid meet">

<g transform="translate(0.000000,1504.000000) scale(0.100000,-0.100000)"
fill="#000000" stroke="none">
<path d="M1050 15025 c-160 -33 -267 -92 -391 -215 -82 -81 -102 -109 -142
-190 -26 -52 -55 -124 -64 -160 -17 -62 -18 -422 -18 -6940 0 -6518 1 -6878
18 -6940 9 -36 38 -108 64 -160 39 -81 60 -109 142 -191 82 -82 110 -103 191
-142 176 -87 111 -82 1100 -82 989 0 924 -5 1100 82 81 39 109 60 191 142 82
82 103 110 142 191 60 123 76 185 87 350 10 150 31 236 86 340 91 175 243 298
444 362 l75 23 7625 0 7625 0 75 -23 c201 -64 353 -187 444 -362 55 -104 76
-190 86 -340 11 -165 27 -227 87 -350 39 -81 60 -109 142 -191 82 -82 110
-103 191 -142 52 -26 124 -55 160 -64 61 -17 280 -18 3940 -18 3660 0 3879 1
3940 18 36 9 108 38 160 64 81 39 109 60 191 142 82 82 103 110 142 191 26 52
55 124 64 160 17 62 18 387 18 6190 0 5803 -1 6128 -18 6190 -9 36 -38 108
-64 160 -39 81 -60 109 -142 191 -82 82 -110 103 -191 142 -175 86 -103 81
-1100 87 l-885 5 -70 24 c-250 83 -419 253 -494 496 -15 46 -25 117 -31 205
-11 165 -27 227 -87 350 -39 81 -60 109 -142 191 -82 82 -110 103 -191 142
-52 26 -122 55 -155 64 -57 17 -653 18 -12170 20 -10039 1 -12121 -1 -12175
-12z m18355 -1553 c252 -85 418 -253 497 -502 l23 -75 0 -2375 0 -2375 -23
-75 c-79 -249 -245 -417 -497 -502 l-70 -23 -1635 -5 c-1843 -6 -1669 2 -1850
-87 -81 -39 -109 -60 -191 -142 -82 -82 -103 -110 -142 -191 -86 -175 -81
-103 -87 -1100 l-5 -885 -24 -70 c-84 -252 -253 -419 -501 -497 l-75 -23
-5375 0 -5375 0 -75 23 c-252 80 -423 251 -502 502 l-23 75 0 3125 0 3125 23
75 c78 248 244 416 497 501 l70 24 3885 5 c3667 5 3888 6 3945 23 33 9 103 38
155 64 81 39 109 60 191 142 82 82 103 110 142 191 60 123 76 185 87 350 13
195 53 313 154 447 100 133 255 229 431 268 49 11 617 13 3170 12 l3110 -2 70
-23z m4500 -1 c250 -84 413 -247 496 -496 l24 -70 5 -885 c6 -997 1 -925 87
-1100 39 -81 60 -109 142 -191 82 -82 110 -103 191 -142 175 -86 103 -81 1100
-87 l885 -5 70 -24 c251 -83 418 -252 497 -501 l23 -75 0 -2375 0 -2375 -23
-75 c-80 -252 -251 -423 -502 -502 l-75 -23 -875 0 -875 0 -75 23 c-248 78
-416 244 -501 497 l-24 70 -5 1635 c-6 1843 2 1669 -87 1850 -39 81 -60 109
-142 191 -82 82 -110 103 -191 142 -175 86 -103 81 -1100 87 l-885 5 -70 24
c-249 83 -412 245 -496 496 l-24 70 -3 1602 c-3 1737 -5 1664 51 1803 40 97
87 169 163 244 76 76 147 123 245 163 130 52 120 52 1044 50 l860 -2 70 -24z"/>
</g>
</svg>
