<svg width="35" height="42" viewBox="0 0 35 42" fill="none" xmlns="http://www.w3.org/2000/svg">
<path fill-rule="evenodd" clip-rule="evenodd" d="M16.4861 1.10265C16.8472 0.821782 17.3528 0.821782 17.7139 1.10265L26.7139 8.10265C26.9575 8.2921 27.1 8.58341 27.1 8.892V19.892C27.1 20.6876 26.7839 21.4507 26.2213 22.0133C25.6587 22.5759 24.8957 22.892 24.1 22.892H10.1C9.30435 22.892 8.54129 22.5759 7.97868 22.0133C7.41607 21.4507 7.1 20.6876 7.1 19.892V8.892C7.1 8.58341 7.24247 8.2921 7.48606 8.10265L16.4861 1.10265ZM9.1 9.38108V19.892C9.1 20.1572 9.20536 20.4116 9.39289 20.5991C9.58043 20.7866 9.83478 20.892 10.1 20.892H24.1C24.3652 20.892 24.6196 20.7866 24.8071 20.5991C24.9946 20.4116 25.1 20.1572 25.1 19.892V9.38108L17.1 3.15886L9.1 9.38108Z" fill="#539DF3"/>
<path fill-rule="evenodd" clip-rule="evenodd" d="M13.1 11.892C13.1 11.3397 13.5477 10.892 14.1 10.892H20.1C20.6523 10.892 21.1 11.3397 21.1 11.892V21.892C21.1 22.4443 20.6523 22.892 20.1 22.892C19.5477 22.892 19.1 22.4443 19.1 21.892V12.892H15.1V21.892C15.1 22.4443 14.6523 22.892 14.1 22.892C13.5477 22.892 13.1 22.4443 13.1 21.892V11.892Z" fill="#539DF3"/>
<path d="M6.66 33.552V41.892H5.292V38.244H1.368V41.892H0V33.552H1.368V37.128H5.292V33.552H6.66Z" fill="#539DF3"/>
<path d="M11.3289 42C10.7049 42 10.1409 41.86 9.63694 41.58C9.13294 41.292 8.73694 40.892 8.44894 40.38C8.16094 39.86 8.01694 39.26 8.01694 38.58C8.01694 37.908 8.16494 37.312 8.46094 36.792C8.75694 36.272 9.16094 35.872 9.67294 35.592C10.1849 35.312 10.7569 35.172 11.3889 35.172C12.0209 35.172 12.5929 35.312 13.1049 35.592C13.6169 35.872 14.0209 36.272 14.3169 36.792C14.6129 37.312 14.7609 37.908 14.7609 38.58C14.7609 39.252 14.6089 39.848 14.3049 40.368C14.0009 40.888 13.5849 41.292 13.0569 41.58C12.5369 41.86 11.9609 42 11.3289 42ZM11.3289 40.812C11.6809 40.812 12.0089 40.728 12.3129 40.56C12.6249 40.392 12.8769 40.14 13.0689 39.804C13.2609 39.468 13.3569 39.06 13.3569 38.58C13.3569 38.1 13.2649 37.696 13.0809 37.368C12.8969 37.032 12.6529 36.78 12.3489 36.612C12.0449 36.444 11.7169 36.36 11.3649 36.36C11.0129 36.36 10.6849 36.444 10.3809 36.612C10.0849 36.78 9.84894 37.032 9.67294 37.368C9.49694 37.696 9.40894 38.1 9.40894 38.58C9.40894 39.292 9.58894 39.844 9.94894 40.236C10.3169 40.62 10.7769 40.812 11.3289 40.812Z" fill="#539DF3"/>
<path d="M24.1173 35.172C24.6373 35.172 25.1013 35.28 25.5093 35.496C25.9253 35.712 26.2493 36.032 26.4813 36.456C26.7213 36.88 26.8413 37.392 26.8413 37.992V41.892H25.4853V38.196C25.4853 37.604 25.3373 37.152 25.0413 36.84C24.7453 36.52 24.3413 36.36 23.8293 36.36C23.3173 36.36 22.9093 36.52 22.6053 36.84C22.3093 37.152 22.1613 37.604 22.1613 38.196V41.892H20.8053V38.196C20.8053 37.604 20.6573 37.152 20.3613 36.84C20.0653 36.52 19.6613 36.36 19.1493 36.36C18.6373 36.36 18.2293 36.52 17.9253 36.84C17.6293 37.152 17.4813 37.604 17.4813 38.196V41.892H16.1133V35.28H17.4813V36.036C17.7053 35.764 17.9893 35.552 18.3333 35.4C18.6773 35.248 19.0453 35.172 19.4373 35.172C19.9653 35.172 20.4373 35.284 20.8533 35.508C21.2693 35.732 21.5893 36.056 21.8133 36.48C22.0133 36.08 22.3253 35.764 22.7493 35.532C23.1733 35.292 23.6293 35.172 24.1173 35.172Z" fill="#539DF3"/>
<path d="M34.642 38.424C34.642 38.672 34.626 38.896 34.594 39.096H29.542C29.582 39.624 29.778 40.048 30.13 40.368C30.482 40.688 30.914 40.848 31.426 40.848C32.162 40.848 32.682 40.54 32.986 39.924H34.462C34.262 40.532 33.898 41.032 33.37 41.424C32.85 41.808 32.202 42 31.426 42C30.794 42 30.226 41.86 29.722 41.58C29.226 41.292 28.834 40.892 28.546 40.38C28.266 39.86 28.126 39.26 28.126 38.58C28.126 37.9 28.262 37.304 28.534 36.792C28.814 36.272 29.202 35.872 29.698 35.592C30.202 35.312 30.778 35.172 31.426 35.172C32.05 35.172 32.606 35.308 33.094 35.58C33.582 35.852 33.962 36.236 34.234 36.732C34.506 37.22 34.642 37.784 34.642 38.424ZM33.214 37.992C33.206 37.488 33.026 37.084 32.674 36.78C32.322 36.476 31.886 36.324 31.366 36.324C30.894 36.324 30.49 36.476 30.154 36.78C29.818 37.076 29.618 37.48 29.554 37.992H33.214Z" fill="#539DF3"/>
</svg>
