<svg width="36" height="41" viewBox="0 0 36 41" fill="none" xmlns="http://www.w3.org/2000/svg">
<path fill-rule="evenodd" clip-rule="evenodd" d="M10.7974 14.3565C11.7351 13.4188 13.0069 12.892 14.333 12.892H22.333C23.6591 12.892 24.9308 13.4188 25.8685 14.3565C26.8062 15.2941 27.333 16.5659 27.333 17.892V19.892C27.333 20.4443 26.8853 20.892 26.333 20.892C25.7807 20.892 25.333 20.4443 25.333 19.892V17.892C25.333 17.0963 25.0169 16.3333 24.4543 15.7707C23.8917 15.2081 23.1286 14.892 22.333 14.892H14.333C13.5373 14.892 12.7743 15.2081 12.2117 15.7707C11.649 16.3333 11.333 17.0963 11.333 17.892V19.892C11.333 20.4443 10.8853 20.892 10.333 20.892C9.78069 20.892 9.33297 20.4443 9.33297 19.892V17.892C9.33297 16.5659 9.85975 15.2941 10.7974 14.3565Z" fill="#539DF3"/>
<path fill-rule="evenodd" clip-rule="evenodd" d="M18.333 2.892C16.6761 2.892 15.333 4.23514 15.333 5.892C15.333 7.54885 16.6761 8.892 18.333 8.892C19.9898 8.892 21.333 7.54885 21.333 5.892C21.333 4.23514 19.9898 2.892 18.333 2.892ZM13.333 5.892C13.333 3.13057 15.5715 0.891998 18.333 0.891998C21.0944 0.891998 23.333 3.13057 23.333 5.892C23.333 8.65342 21.0944 10.892 18.333 10.892C15.5715 10.892 13.333 8.65342 13.333 5.892Z" fill="#539DF3"/>
<path d="M6.06497 35.036C6.06497 35.46 5.96497 35.86 5.76497 36.236C5.56497 36.612 5.24497 36.92 4.80497 37.16C4.36497 37.392 3.80097 37.508 3.11297 37.508H1.60097V40.892H0.232971V32.552H3.11297C3.75297 32.552 4.29297 32.664 4.73297 32.888C5.18097 33.104 5.51297 33.4 5.72897 33.776C5.95297 34.152 6.06497 34.572 6.06497 35.036ZM3.11297 36.392C3.63297 36.392 4.02097 36.276 4.27697 36.044C4.53297 35.804 4.66097 35.468 4.66097 35.036C4.66097 34.124 4.14497 33.668 3.11297 33.668H1.60097V36.392H3.11297Z" fill="#539DF3"/>
<path d="M8.73769 35.24C8.93769 34.904 9.20169 34.644 9.52969 34.46C9.86569 34.268 10.2617 34.172 10.7177 34.172V35.588H10.3697C9.83369 35.588 9.42569 35.724 9.14569 35.996C8.87369 36.268 8.73769 36.74 8.73769 37.412V40.892H7.36969V34.28H8.73769V35.24Z" fill="#539DF3"/>
<path d="M14.8432 41C14.2192 41 13.6552 40.86 13.1512 40.58C12.6472 40.292 12.2512 39.892 11.9632 39.38C11.6752 38.86 11.5312 38.26 11.5312 37.58C11.5312 36.908 11.6792 36.312 11.9752 35.792C12.2712 35.272 12.6752 34.872 13.1872 34.592C13.6992 34.312 14.2712 34.172 14.9032 34.172C15.5352 34.172 16.1072 34.312 16.6192 34.592C17.1312 34.872 17.5352 35.272 17.8312 35.792C18.1272 36.312 18.2752 36.908 18.2752 37.58C18.2752 38.252 18.1232 38.848 17.8192 39.368C17.5152 39.888 17.0992 40.292 16.5712 40.58C16.0512 40.86 15.4752 41 14.8432 41ZM14.8432 39.812C15.1952 39.812 15.5232 39.728 15.8272 39.56C16.1392 39.392 16.3912 39.14 16.5832 38.804C16.7752 38.468 16.8712 38.06 16.8712 37.58C16.8712 37.1 16.7792 36.696 16.5952 36.368C16.4112 36.032 16.1672 35.78 15.8632 35.612C15.5592 35.444 15.2312 35.36 14.8792 35.36C14.5272 35.36 14.1992 35.444 13.8952 35.612C13.5992 35.78 13.3632 36.032 13.1872 36.368C13.0112 36.696 12.9232 37.1 12.9232 37.58C12.9232 38.292 13.1032 38.844 13.4632 39.236C13.8312 39.62 14.2912 39.812 14.8432 39.812Z" fill="#539DF3"/>
<path d="M22.3995 35.396H21.1755V40.892H19.7955V35.396H19.0155V34.28H19.7955V33.812C19.7955 33.052 19.9955 32.5 20.3955 32.156C20.8035 31.804 21.4395 31.628 22.3035 31.628V32.768C21.8875 32.768 21.5955 32.848 21.4275 33.008C21.2595 33.16 21.1755 33.428 21.1755 33.812V34.28H22.3995V35.396Z" fill="#539DF3"/>
<path d="M24.3079 33.404C24.0599 33.404 23.8519 33.32 23.6839 33.152C23.5159 32.984 23.4319 32.776 23.4319 32.528C23.4319 32.28 23.5159 32.072 23.6839 31.904C23.8519 31.736 24.0599 31.652 24.3079 31.652C24.5479 31.652 24.7519 31.736 24.9199 31.904C25.0879 32.072 25.1719 32.28 25.1719 32.528C25.1719 32.776 25.0879 32.984 24.9199 33.152C24.7519 33.32 24.5479 33.404 24.3079 33.404ZM24.9799 34.28V40.892H23.6119V34.28H24.9799Z" fill="#539DF3"/>
<path d="M28.1439 32.012V40.892H26.7759V32.012H28.1439Z" fill="#539DF3"/>
<path d="M36 37.424C36 37.672 35.984 37.896 35.952 38.096H30.9C30.94 38.624 31.136 39.048 31.488 39.368C31.84 39.688 32.272 39.848 32.784 39.848C33.52 39.848 34.04 39.54 34.344 38.924H35.82C35.62 39.532 35.256 40.032 34.728 40.424C34.208 40.808 33.56 41 32.784 41C32.152 41 31.584 40.86 31.08 40.58C30.584 40.292 30.192 39.892 29.904 39.38C29.624 38.86 29.484 38.26 29.484 37.58C29.484 36.9 29.62 36.304 29.892 35.792C30.172 35.272 30.56 34.872 31.056 34.592C31.56 34.312 32.136 34.172 32.784 34.172C33.408 34.172 33.964 34.308 34.452 34.58C34.94 34.852 35.32 35.236 35.592 35.732C35.864 36.22 36 36.784 36 37.424ZM34.572 36.992C34.564 36.488 34.384 36.084 34.032 35.78C33.68 35.476 33.244 35.324 32.724 35.324C32.252 35.324 31.848 35.476 31.512 35.78C31.176 36.076 30.976 36.48 30.912 36.992H34.572Z" fill="#539DF3"/>
</svg>
